<?xml version="1.0" encoding="UTF-8"?>
<!DOCTYPE svg PUBLIC "-//W3C//DTD SVG 1.1//EN" "http://www.w3.org/Graphics/SVG/1.1/DTD/svg11.dtd">
<svg xmlns="http://www.w3.org/2000/svg" version="1.1" width="250px" height="250px" style="shape-rendering:geometricPrecision; text-rendering:geometricPrecision; image-rendering:optimizeQuality; fill-rule:evenodd; clip-rule:evenodd" xmlns:xlink="http://www.w3.org/1999/xlink">
<g><path style="opacity:0.889" fill="#070707" d="M 72.5,25.5 C 72.5,46.1667 72.5,66.8333 72.5,87.5C 70.2188,87.0773 68.5521,87.744 67.5,89.5C 66.2101,88.9423 65.3768,87.9423 65,86.5C 63.4167,87.9711 61.5834,88.9711 59.5,89.5C 56.3157,87.5864 52.649,86.9197 48.5,87.5C 48.1901,67.1207 48.5234,46.7874 49.5,26.5C 52.6399,25.3592 55.9733,25.1925 59.5,26C 61.2166,27.5588 63.2166,28.3921 65.5,28.5C 65.5,27.5 65.5,26.5 65.5,25.5C 67.8333,25.5 70.1667,25.5 72.5,25.5 Z M 54.5,34.5 C 55.7498,34.5774 56.5831,35.244 57,36.5C 57.6667,40.5 57.6667,44.5 57,48.5C 56.3333,49.1667 55.6667,49.8333 55,50.5C 54.5006,45.1771 54.334,39.8437 54.5,34.5 Z M 54.5,58.5 C 56.1238,58.3601 57.2904,59.0267 58,60.5C 58.3148,63.3715 58.8148,66.2048 59.5,69C 59.2654,71.3517 59.0988,73.8517 59,76.5C 58.5495,79.1059 57.0495,80.4392 54.5,80.5C 54.5,73.1667 54.5,65.8333 54.5,58.5 Z"/></g>
<g><path style="opacity:0.921" fill="#101010" d="M 72.5,25.5 C 75.1873,25.3359 77.854,25.5026 80.5,26C 81.4438,28.7191 81.7771,31.5525 81.5,34.5C 79.1667,34.5 76.8333,34.5 74.5,34.5C 74.5,37.1667 74.5,39.8333 74.5,42.5C 78.412,41.5422 82.2454,41.2089 86,41.5C 87.4019,43.9734 88.9019,43.9734 90.5,41.5C 92.3707,42.767 94.2041,42.767 96,41.5C 98.5586,43.17 100.225,45.5034 101,48.5C 102.961,44.205 106.295,41.8717 111,41.5C 111.499,36.1771 111.666,30.8437 111.5,25.5C 114.167,25.5 116.833,25.5 119.5,25.5C 119.5,27.1667 119.5,28.8333 119.5,30.5C 119.5,47.8333 119.5,65.1667 119.5,82.5C 119.33,83.8221 119.663,84.9887 120.5,86C 119.833,87 119.167,88 118.5,89C 113.81,88.6683 109.143,89.0017 104.5,90C 102.951,88.786 101.785,87.286 101,85.5C 100.51,86.7932 100.343,88.1266 100.5,89.5C 97.8333,89.5 95.1667,89.5 92.5,89.5C 92.6797,76.286 92.3464,63.286 91.5,50.5C 90.5224,50.9767 89.6891,51.6433 89,52.5C 88.5001,64.8288 88.3335,77.1622 88.5,89.5C 81.3484,89.145 74.3484,89.145 67.5,89.5C 68.5521,87.744 70.2188,87.0773 72.5,87.5C 72.5,66.8333 72.5,46.1667 72.5,25.5 Z M 109.5,50.5 C 110.826,54.6139 111.493,59.1139 111.5,64C 111.333,68.5 111.167,73 111,77.5C 110.781,78.938 110.281,80.2713 109.5,81.5C 108.193,71.1059 108.193,60.7726 109.5,50.5 Z"/></g>
<g><path style="opacity:0.907" fill="#0c0c0c" d="M 177.5,77.5 C 177.263,78.791 177.596,79.791 178.5,80.5C 179.338,80.8417 179.672,81.5084 179.5,82.5C 179.833,83.8333 180.167,83.8333 180.5,82.5C 181.338,82.8417 181.672,83.5084 181.5,84.5C 180.356,85.8493 180.356,86.1826 181.5,85.5C 182.167,85.5 182.5,85.8333 182.5,86.5C 178.893,91.3354 174.726,91.6687 170,87.5C 169.667,87.8333 169.333,88.1667 169,88.5C 168.768,87.2625 168.268,86.2625 167.5,85.5C 167.5,85.1667 167.5,84.8333 167.5,84.5C 168.833,83.8333 168.833,83.1667 167.5,82.5C 168.455,71.5511 168.789,60.5511 168.5,49.5C 167.5,49.5 166.5,49.5 165.5,49.5C 165.171,62.6774 165.505,75.6774 166.5,88.5C 164.643,89.7537 162.643,89.7537 160.5,88.5C 155.52,91.5885 151.52,90.5885 148.5,85.5C 147.702,85.9569 147.369,86.6236 147.5,87.5C 139.983,92.5573 134.15,91.224 130,83.5C 129.041,65.4341 129.374,47.4341 131,29.5C 134.66,25.6326 139.16,24.466 144.5,26C 145.646,26.6449 146.646,27.4783 147.5,28.5C 148.331,35.1419 148.831,41.8085 149,48.5C 149.685,45.9427 151.185,44.1094 153.5,43C 156.189,42.1063 158.689,41.6063 161,41.5C 162.577,44.6754 164.41,45.0088 166.5,42.5C 167.491,38.5546 167.824,34.5546 167.5,30.5C 170.167,29.1667 172.833,29.1667 175.5,30.5C 175.5,34.5 175.5,38.5 175.5,42.5C 177.467,42.2606 179.301,42.5939 181,43.5C 181.497,45.8098 181.663,48.1432 181.5,50.5C 179.5,50.5 177.5,50.5 175.5,50.5C 174.862,59.8955 175.529,68.8955 177.5,77.5 Z M 138.5,34.5 C 140.337,34.6395 140.67,35.3061 139.5,36.5C 138.702,36.0431 138.369,35.3764 138.5,34.5 Z M 138.5,37.5 C 139.5,37.5 140.5,37.5 141.5,37.5C 141.886,41.8764 141.219,46.0431 139.5,50C 140.167,51 140.833,52 141.5,53C 143.81,53.4966 146.143,53.6633 148.5,53.5C 148.5,54.8333 148.5,56.1667 148.5,57.5C 150.857,57.6633 153.19,57.4966 155.5,57C 154.978,54.7105 155.645,52.5438 157.5,50.5C 159.466,53.549 159.966,56.8823 159,60.5C 158.333,59.8333 157.667,59.1667 157,58.5C 154.49,59.1087 152.49,60.442 151,62.5C 150.667,61.8333 150.333,61.1667 150,60.5C 147.281,61.4438 144.448,61.7771 141.5,61.5C 141.666,67.1764 141.499,72.8431 141,78.5C 140.581,79.6721 139.915,80.6721 139,81.5C 138.578,79.6447 138.078,77.8114 137.5,76C 138.472,63.2041 138.805,50.3708 138.5,37.5 Z M 158.5,78.5 C 158.5,77.8333 158.167,77.5 157.5,77.5C 154.925,74.6592 154.925,71.8258 157.5,69C 156.619,67.207 157.286,66.5403 159.5,67C 159.72,70.8191 159.387,74.6524 158.5,78.5 Z M 157.5,77.5 C 158.167,77.5 158.5,77.8333 158.5,78.5C 158.013,79.4734 157.513,80.4734 157,81.5C 156.235,79.9343 156.402,78.6009 157.5,77.5 Z"/></g>
<g><path style="opacity:0.042" fill="#fafafa" d="M 119.5,82.5 C 119.5,65.1667 119.5,47.8333 119.5,30.5C 121.17,28.0754 123.17,27.9087 125.5,30C 126.218,32.4607 126.885,34.9607 127.5,37.5C 126.683,52.122 126.183,66.7887 126,81.5C 123.997,83.4576 121.831,83.7909 119.5,82.5 Z"/></g>
<g><path style="opacity:0.004" fill="#000000" d="M 151.5,38.5 C 152.525,38.8966 152.692,39.5632 152,40.5C 151.536,39.9056 151.369,39.2389 151.5,38.5 Z"/></g>
<g><path style="opacity:0.004" fill="#000000" d="M 158.5,39.5 C 159.833,40.1667 159.833,40.1667 158.5,39.5 Z"/></g>
<g><path style="opacity:0.7" fill="#474747" d="M 167.5,82.5 C 167.5,83.1667 167.5,83.8333 167.5,84.5C 167.5,84.8333 167.5,85.1667 167.5,85.5C 167.737,86.791 167.404,87.791 166.5,88.5C 165.505,75.6774 165.171,62.6774 165.5,49.5C 166.5,49.5 167.5,49.5 168.5,49.5C 168.789,60.5511 168.455,71.5511 167.5,82.5 Z"/></g>
<g><path style="opacity:0.004" fill="#000000" d="M 213.5,61.5 C 212.833,60.1667 212.833,60.1667 213.5,61.5 Z"/></g>
<g><path style="opacity:0.004" fill="#000000" d="M 213.5,61.5 C 214.833,62.1667 214.833,62.1667 213.5,61.5 Z"/></g>
<g><path style="opacity:0.004" fill="#fefffe" d="M 177.5,63.5 C 176.833,64.1667 176.833,64.1667 177.5,63.5 Z"/></g>
<g><path style="opacity:0.314" fill="#6e67ae" d="M 178.5,60.5 C 181.167,61.8333 181.167,63.1667 178.5,64.5C 178.5,63.8333 178.167,63.5 177.5,63.5C 177.263,62.209 177.596,61.209 178.5,60.5 Z"/></g>
<g><path style="opacity:1" fill="#0603f9" d="M 199.5,62.5 C 199.5,63.8333 199.5,65.1667 199.5,66.5C 201.92,66.7076 204.253,66.3742 206.5,65.5C 207.135,69.0033 208.135,72.3366 209.5,75.5C 208.214,77.6255 207.381,79.9589 207,82.5C 204.452,84.6587 201.952,86.6587 199.5,88.5C 199.328,89.4916 199.662,90.1583 200.5,90.5C 201.92,93.2613 202.587,96.2613 202.5,99.5C 202.077,100.265 201.743,101.098 201.5,102C 204.155,106.599 204.989,111.432 204,116.5C 204.333,115.833 204.667,115.167 205,114.5C 208.95,126.709 209.283,139.042 206,151.5C 199.1,159.241 191.933,159.408 184.5,152C 182.833,151.667 181.167,151.333 179.5,151C 180.448,150.517 181.448,150.351 182.5,150.5C 180.675,143.616 180.175,136.616 181,129.5C 183.463,117.806 186.463,106.14 190,94.5C 190.333,96.8333 190.667,99.1667 191,101.5C 191.333,101.167 191.667,100.833 192,100.5C 191.983,96.5246 191.816,92.5246 191.5,88.5C 189.857,88.5198 188.524,87.8532 187.5,86.5C 186.478,86.8555 185.811,87.5222 185.5,88.5C 184.222,88.2178 183.222,87.5511 182.5,86.5C 182.5,85.8333 182.167,85.5 181.5,85.5C 181.5,85.1667 181.5,84.8333 181.5,84.5C 181.672,83.5084 181.338,82.8417 180.5,82.5C 180.167,82.5 179.833,82.5 179.5,82.5C 179.672,81.5084 179.338,80.8417 178.5,80.5C 178.737,79.209 178.404,78.209 177.5,77.5C 179.271,73.2305 179.604,68.8972 178.5,64.5C 181.167,63.1667 181.167,61.8333 178.5,60.5C 178.811,59.5222 179.478,58.8555 180.5,58.5C 180.307,59.6882 180.807,61.0215 182,62.5C 185.195,63.4238 188.361,63.0904 191.5,61.5C 192.803,62.7178 193.803,62.3845 194.5,60.5C 195.842,62.0049 197.508,62.6715 199.5,62.5 Z"/></g>
<g><path style="opacity:0.925" fill="#3328d6" d="M 210.5,65.5 C 209.351,65.7911 208.684,66.6244 208.5,68C 208.528,69.0698 208.861,69.9032 209.5,70.5C 211.631,76.9942 210.298,82.6608 205.5,87.5C 203.379,87.3253 201.379,87.6586 199.5,88.5C 201.952,86.6587 204.452,84.6587 207,82.5C 207.381,79.9589 208.214,77.6255 209.5,75.5C 208.135,72.3366 207.135,69.0033 206.5,65.5C 204.253,66.3742 201.92,66.7076 199.5,66.5C 199.5,65.1667 199.5,63.8333 199.5,62.5C 201.435,63.1495 203.435,63.4828 205.5,63.5C 205.413,60.4017 205.913,60.0684 207,62.5C 208.153,60.503 209.653,60.1696 211.5,61.5C 210.754,62.7362 210.421,64.0695 210.5,65.5 Z"/></g>
<g><path style="opacity:0.004" fill="#ececf6" d="M 210.5,65.5 C 210.784,67.4147 210.451,69.0813 209.5,70.5C 208.861,69.9032 208.528,69.0698 208.5,68C 208.684,66.6244 209.351,65.7911 210.5,65.5 Z"/></g>
<g><path style="opacity:0.917" fill="#101010" d="M 49.5,26.5 C 48.5234,46.7874 48.1901,67.1207 48.5,87.5C 52.649,86.9197 56.3157,87.5864 59.5,89.5C 57.323,89.5861 55.323,90.2528 53.5,91.5C 51.4902,89.8287 49.1569,89.162 46.5,89.5C 46.1795,94.6946 46.5128,99.6946 47.5,104.5C 46.9935,105.859 45.9935,106.859 44.5,107.5C 43.3473,108.687 43.3473,109.687 44.5,110.5C 43.176,112.558 43.676,114.225 46,115.5C 46.4935,113.866 46.6602,112.199 46.5,110.5C 47.26,118.505 47.9267,128.505 48.5,140.5C 48.3764,141.107 48.0431,141.44 47.5,141.5C 46.3559,140.817 46.3559,141.151 47.5,142.5C 49.9663,143.298 51.9663,144.631 53.5,146.5C 50.9009,146.451 48.7342,145.451 47,143.5C 46.5172,144.448 46.3505,145.448 46.5,146.5C 43.8806,146.768 41.3806,146.435 39,145.5C 38.6667,136.5 38.3333,127.5 38,118.5C 36.9887,117.663 35.8221,117.33 34.5,117.5C 34.5,127.167 34.5,136.833 34.5,146.5C 31.8806,146.768 29.3806,146.435 27,145.5C 26.822,124.79 26.322,104.123 25.5,83.5C 28.254,83.6429 31.254,83.3096 34.5,82.5C 37.1308,82.7823 39.6308,83.4489 42,84.5C 42.3333,83.8333 42.6667,83.1667 43,82.5C 43.8147,84.6228 44.8147,86.6228 46,88.5C 46.5,67.836 46.6666,47.1694 46.5,26.5C 47.5,26.5 48.5,26.5 49.5,26.5 Z M 34.5,91.5 C 35.6779,92.6619 36.8446,93.6619 38,94.5C 38.6477,99.2041 38.481,103.871 37.5,108.5C 36.5,108.5 35.5,108.5 34.5,108.5C 34.5,102.833 34.5,97.1667 34.5,91.5 Z M 44.5,110.5 C 45.1667,110.5 45.8333,110.5 46.5,110.5C 46.6602,112.199 46.4935,113.866 46,115.5C 43.676,114.225 43.176,112.558 44.5,110.5 Z"/></g>
<g><path style="opacity:0.004" fill="#000000" d="M 147.5,87.5 C 148.833,88.1667 148.833,88.1667 147.5,87.5 Z"/></g>
<g><path style="opacity:0.051" fill="#a3a4ef" d="M 205.5,87.5 C 203.739,88.3127 202.072,89.3127 200.5,90.5C 199.662,90.1583 199.328,89.4916 199.5,88.5C 201.379,87.6586 203.379,87.3253 205.5,87.5 Z"/></g>
<g><path style="opacity:0.004" fill="#4e4e4e" d="M 100.5,96.5 C 99.7611,96.631 99.0944,96.4643 98.5,96C 99.4368,95.3083 100.103,95.475 100.5,96.5 Z"/></g>
<g><path style="opacity:0.008" fill="#f9f9f9" d="M 93.5,97.5 C 94.0024,95.9153 95.0024,95.4153 96.5,96C 95.7562,97.0386 94.7562,97.5386 93.5,97.5 Z"/></g>
<g><path style="opacity:0.004" fill="#fefffe" d="M 100.5,96.5 C 101.833,97.1667 101.833,97.1667 100.5,96.5 Z"/></g>
<g><path style="opacity:0.004" fill="#fefffe" d="M 93.5,97.5 C 93.5,97.8333 93.5,98.1667 93.5,98.5C 92.8299,98.0187 92.8299,97.6853 93.5,97.5 Z"/></g>
<g><path style="opacity:0.903" fill="#0b0b0b" d="M 75.5,115.5 C 76.2549,118.517 78.0882,120.851 81,122.5C 82.6162,124.713 83.7828,127.047 84.5,129.5C 83.1667,132.5 83.1667,135.5 84.5,138.5C 83.3234,144.329 79.6568,147.329 73.5,147.5C 73.3343,151.846 73.501,156.179 74,160.5C 74.3826,161.056 74.8826,161.389 75.5,161.5C 76.0967,161.735 76.4301,162.235 76.5,163C 75.9496,166.324 75.2829,169.491 74.5,172.5C 73.4931,169.619 73.3264,166.619 74,163.5C 70.9433,164.451 67.7766,164.784 64.5,164.5C 66.467,166.862 68.6337,169.195 71,171.5C 72.705,173.577 73.8717,175.91 74.5,178.5C 73.1818,181.258 72.5152,184.424 72.5,188C 72.5501,191.603 73.2168,194.936 74.5,198C 72.6243,198.918 71.6243,200.418 71.5,202.5C 71.1667,203.167 70.8333,203.833 70.5,204.5C 66.5,204.5 62.5,204.5 58.5,204.5C 58.5,203.833 58.1667,203.5 57.5,203.5C 57.1667,202.5 56.5,201.833 55.5,201.5C 55.1307,199.559 54.464,197.725 53.5,196C 54.4667,191.599 54.8,187.099 54.5,182.5C 51.2689,181.819 47.9356,181.652 44.5,182C 43.1667,180.333 41.8333,178.667 40.5,177C 42.1995,167.91 43.0328,159.077 43,150.5C 45.4591,147.294 48.2924,147.294 51.5,150.5C 52.825,153.531 52.825,156.531 51.5,159.5C 50.1667,159.5 48.8333,159.5 47.5,159.5C 47.5,160.5 47.5,161.5 47.5,162.5C 49.8333,162.5 52.1667,162.5 54.5,162.5C 55.0736,157.352 54.407,152.518 52.5,148C 53.056,147.617 53.3893,147.117 53.5,146.5C 51.9663,144.631 49.9663,143.298 47.5,142.5C 47.5,142.167 47.5,141.833 47.5,141.5C 48.0431,141.44 48.3764,141.107 48.5,140.5C 47.9267,128.505 47.26,118.505 46.5,110.5C 45.8333,110.5 45.1667,110.5 44.5,110.5C 43.3473,109.687 43.3473,108.687 44.5,107.5C 45.9935,106.859 46.9935,105.859 47.5,104.5C 47.8588,102.629 48.8588,101.129 50.5,100C 57.6447,97.1574 62.478,99.3241 65,106.5C 66.7059,101.126 70.3726,98.4596 76,98.5C 78.7804,99.1381 80.947,100.638 82.5,103C 81.3463,103.914 81.513,104.747 83,105.5C 83.9216,109.691 83.5882,113.691 82,117.5C 79.7412,117.875 77.5746,117.208 75.5,115.5 Z M 55.5,107.5 C 56.1174,107.611 56.6174,107.944 57,108.5C 57.6667,111.167 57.6667,113.833 57,116.5C 55.9505,117.517 54.7839,117.684 53.5,117C 54.1667,116.667 54.8333,116.333 55.5,116C 53.1179,113.305 53.1179,110.471 55.5,107.5 Z M 75.5,115.5 C 73.2776,115.441 72.2776,114.275 72.5,112C 72.3875,110.338 73.0542,109.171 74.5,108.5C 76.3637,110.712 76.697,113.045 75.5,115.5 Z M 65.5,119.5 C 68.8238,123.324 72.3238,126.991 76,130.5C 76.4966,132.81 76.6633,135.143 76.5,137.5C 75.1779,137.67 74.0113,137.337 73,136.5C 72.5034,134.19 72.3367,131.857 72.5,129.5C 67.5,130.833 62.5,130.833 57.5,129.5C 57.6641,132.187 57.4974,134.854 57,137.5C 55.6054,138.815 54.6054,138.481 54,136.5C 53.5017,133.183 53.335,129.85 53.5,126.5C 57.5,126.5 61.5,126.5 65.5,126.5C 65.5,124.167 65.5,121.833 65.5,119.5 Z M 64.5,164.5 C 63.3349,163.504 62.6682,162.171 62.5,160.5C 62.2034,156.794 62.7034,153.127 64,149.5C 65.7758,154.465 65.9424,159.465 64.5,164.5 Z M 56.5,179.5 C 56.3059,177.088 54.9726,176.088 52.5,176.5C 53.2811,173.392 53.6144,170.392 53.5,167.5C 57.0187,171.852 61.0187,175.686 65.5,179C 64.7203,180.073 64.887,181.24 66,182.5C 66.6667,186.5 66.6667,190.5 66,194.5C 65.5774,195.956 64.7441,196.456 63.5,196C 62.1667,191.333 62.1667,186.667 63.5,182C 62.8095,180.933 62.3095,179.766 62,178.5C 60.5415,180.81 58.7081,181.143 56.5,179.5 Z"/></g>
<g><path style="opacity:0.941" fill="#0f0f0f" d="M 93.5,98.5 C 94.609,98.5569 95.609,98.8902 96.5,99.5C 98.2292,100.117 99.7292,101.117 101,102.5C 101.452,105.877 102.118,109.211 103,112.5C 102.991,107.863 103.825,103.529 105.5,99.5C 107.167,99.5 108.833,99.5 110.5,99.5C 110.5,100.5 110.5,101.5 110.5,102.5C 110.5,109.5 110.5,116.5 110.5,123.5C 110.173,128.544 110.506,133.544 111.5,138.5C 112.086,138.291 112.586,137.957 113,137.5C 113.333,124.5 113.667,111.5 114,98.5C 116.069,99.2638 118.236,99.7638 120.5,100C 121.252,100.671 121.586,101.504 121.5,102.5C 121.577,103.75 122.244,104.583 123.5,105C 122.833,105.333 122.167,105.667 121.5,106C 121.563,118.124 121.563,130.291 121.5,142.5C 121.67,143.822 121.337,144.989 120.5,146C 117.517,147.396 114.517,147.563 111.5,146.5C 109.813,146.76 108.313,147.427 107,148.5C 105.333,146.167 103.667,143.833 102,141.5C 100.394,145.477 97.3943,147.477 93,147.5C 89.791,146.48 86.6243,145.314 83.5,144C 84.4061,142.301 84.7394,140.467 84.5,138.5C 83.1667,135.5 83.1667,132.5 84.5,129.5C 84.3336,120.827 84.5002,112.16 85,103.5C 87.1663,100.468 89.9997,98.8018 93.5,98.5 Z M 92.5,107.5 C 94.1119,110.744 95.1119,114.411 95.5,118.5C 97.6216,119.427 99.9549,119.427 102.5,118.5C 102.5,121.167 102.5,123.833 102.5,126.5C 100.167,126.5 97.8333,126.5 95.5,126.5C 95.8222,130.747 94.9889,134.747 93,138.5C 91.1934,128.194 91.0267,117.861 92.5,107.5 Z"/></g>
<g><path style="opacity:0.886" fill="#100f11" d="M 148.5,196.5 C 147.505,184.678 147.172,172.678 147.5,160.5C 143.894,160.789 140.394,160.456 137,159.5C 136.501,155.514 136.334,151.514 136.5,147.5C 134.5,147.5 132.5,147.5 130.5,147.5C 126.691,147.1 123.691,145.433 121.5,142.5C 121.563,130.291 121.563,118.124 121.5,106C 122.167,105.667 122.833,105.333 123.5,105C 122.244,104.583 121.577,103.75 121.5,102.5C 123.196,102.315 124.529,101.481 125.5,100C 128.833,99.3333 132.167,99.3333 135.5,100C 137.049,101.214 138.215,102.714 139,104.5C 140.397,111.452 140.73,118.452 140,125.5C 136.27,126.46 132.437,126.793 128.5,126.5C 128.335,130.182 128.501,133.848 129,137.5C 129.414,137.957 129.914,138.291 130.5,138.5C 131.208,135.634 131.875,132.8 132.5,130C 135.099,129.231 137.599,129.398 140,130.5C 140.222,134.182 139.889,137.848 139,141.5C 138.426,143.492 137.259,144.992 135.5,146C 137.291,146.415 138.624,147.415 139.5,149C 136.333,157.833 139.167,160.667 148,157.5C 150.734,158.362 150.901,159.195 148.5,160C 149.428,160.388 150.095,161.055 150.5,162C 149.237,167.531 148.57,173.198 148.5,179C 148.89,185.04 148.89,190.874 148.5,196.5 Z M 129.5,107.5 C 130.117,107.611 130.617,107.944 131,108.5C 131.498,111.482 131.665,114.482 131.5,117.5C 130.5,117.5 129.5,117.5 128.5,117.5C 128.342,114.098 128.676,110.764 129.5,107.5 Z"/></g>
<g><path style="opacity:0.014" fill="#fefffe" d="M 110.5,102.5 C 112.039,105.865 112.706,109.531 112.5,113.5C 112.333,116.167 112.167,118.833 112,121.5C 111.722,122.416 111.222,123.082 110.5,123.5C 110.5,116.5 110.5,109.5 110.5,102.5 Z"/></g>
<g><path style="opacity:0.196" fill="#ababab" d="M 100.5,97.5 C 99.537,98.3635 99.537,99.0302 100.5,99.5C 102.003,98.9478 103.669,98.9478 105.5,99.5C 103.825,103.529 102.991,107.863 103,112.5C 102.118,109.211 101.452,105.877 101,102.5C 99.7292,101.117 98.2292,100.117 96.5,99.5C 97.1834,97.8235 98.5168,97.1568 100.5,97.5 Z"/></g>
<g><path style="opacity:0.996" fill="#291fd9" d="M 202.5,99.5 C 204.853,104.446 206.853,109.28 208.5,114C 207.978,114.561 207.645,115.228 207.5,116C 211.778,129.439 211.444,142.606 206.5,155.5C 204.181,155.992 202.181,156.992 200.5,158.5C 198.833,158.5 197.167,158.5 195.5,158.5C 193.5,158.5 191.5,158.5 189.5,158.5C 186.554,156.094 183.387,154.761 180,154.5C 155.99,160.873 143.49,151.373 142.5,126C 144.061,118.523 148.061,112.856 154.5,109C 154.167,108.667 153.833,108.333 153.5,108C 157.833,107.333 162.167,107.333 166.5,108C 170.052,109.216 173.385,110.883 176.5,113C 175.984,116.013 176.984,118.68 179.5,121C 178.39,123.737 178.223,126.571 179,129.5C 179.855,124.475 180.688,119.475 181.5,114.5C 183.294,107.097 185.627,99.4299 188.5,91.5C 188.484,89.484 187.484,88.484 185.5,88.5C 185.811,87.5222 186.478,86.8555 187.5,86.5C 188.524,87.8532 189.857,88.5198 191.5,88.5C 191.816,92.5246 191.983,96.5246 192,100.5C 191.667,100.833 191.333,101.167 191,101.5C 190.667,99.1667 190.333,96.8333 190,94.5C 186.463,106.14 183.463,117.806 181,129.5C 180.175,136.616 180.675,143.616 182.5,150.5C 181.448,150.351 180.448,150.517 179.5,151C 181.167,151.333 182.833,151.667 184.5,152C 191.933,159.408 199.1,159.241 206,151.5C 209.283,139.042 208.95,126.709 205,114.5C 204.667,115.167 204.333,115.833 204,116.5C 204.989,111.432 204.155,106.599 201.5,102C 201.743,101.098 202.077,100.265 202.5,99.5 Z M 167.5,133.5 C 172.118,129.977 172.785,125.644 169.5,120.5C 167.5,119.5 165.5,118.5 163.5,117.5C 161.289,118.123 159.289,119.123 157.5,120.5C 156.056,119.019 155.389,119.352 155.5,121.5C 154.167,121.833 154.167,122.167 155.5,122.5C 155.029,124.288 154.696,126.122 154.5,128C 155.223,131.986 156.223,135.819 157.5,139.5C 165.158,141.94 171.658,140.273 177,134.5C 177.333,133.167 177.667,131.833 178,130.5C 178.253,135.039 178.753,139.539 179.5,144C 179.07,145.598 178.736,147.098 178.5,148.5C 166.534,154.142 156.867,151.309 149.5,140C 149.833,139.667 150.167,139.333 150.5,139C 147.201,133.873 146.701,128.373 149,122.5C 151.72,116.595 156.22,113.261 162.5,112.5C 168.653,113.153 172.487,116.486 174,122.5C 174.744,125.871 174.244,129.037 172.5,132C 170.975,133.009 169.308,133.509 167.5,133.5 Z M 167.5,133.5 C 168.914,135.598 168.248,136.598 165.5,136.5C 164.833,135.833 164.167,135.167 163.5,134.5C 164.568,133.566 165.901,133.232 167.5,133.5 Z M 160.5,124.5 C 160.539,125.756 160.039,126.756 159,127.5C 158.415,126.002 158.915,125.002 160.5,124.5 Z M 161.5,123.5 C 163.035,122.212 164.701,122.212 166.5,123.5C 166.481,125.106 166.647,126.772 167,128.5C 162.77,129.492 161.937,128.326 164.5,125C 163.473,124.487 162.473,123.987 161.5,123.5 Z"/></g>
<g><path style="opacity:0.012" fill="#000000" d="M 181.5,114.5 C 180.833,113.167 180.833,113.167 181.5,114.5 Z"/></g>
<g><path style="opacity:0.006" fill="#e8e1fc" d="M 163.5,134.5 C 164.167,135.167 164.833,135.833 165.5,136.5C 164.325,136.719 163.325,136.386 162.5,135.5C 162.624,134.893 162.957,134.56 163.5,134.5 Z"/></g>
<g><path style="opacity:0.968" fill="#0e0e0e" d="M 130.5,147.5 C 132.5,147.5 134.5,147.5 136.5,147.5C 136.334,151.514 136.501,155.514 137,159.5C 140.394,160.456 143.894,160.789 147.5,160.5C 147.172,172.678 147.505,184.678 148.5,196.5C 149.397,197.598 150.23,197.598 151,196.5C 151.943,185.518 152.443,174.518 152.5,163.5C 152.414,162.504 152.748,161.671 153.5,161C 155.134,160.506 156.801,160.34 158.5,160.5C 158.5,174.833 158.5,189.167 158.5,203.5C 156.585,203.216 154.919,203.549 153.5,204.5C 147.167,204.5 140.833,204.5 134.5,204.5C 132.856,203.684 131.69,202.35 131,200.5C 130.83,190.325 130.33,180.325 129.5,170.5C 129.5,170.167 129.5,169.833 129.5,169.5C 130.833,168.833 130.833,168.167 129.5,167.5C 129.804,166.85 130.137,166.183 130.5,165.5C 129.138,163.573 128.138,161.573 127.5,159.5C 128.209,158.596 129.209,158.263 130.5,158.5C 130.205,154.654 130.205,150.988 130.5,147.5 Z M 138.5,166.5 C 139.5,166.5 140.5,166.5 141.5,166.5C 140.167,176.5 140.167,186.5 141.5,196.5C 140.5,196.5 139.5,196.5 138.5,196.5C 138.5,186.5 138.5,176.5 138.5,166.5 Z"/></g>
<g><path style="opacity:0.012" fill="#000000" d="M 206.5,155.5 C 207.833,156.167 207.833,156.167 206.5,155.5 Z"/></g>
<g><path style="opacity:0.004" fill="#0000ff" d="M 182.5,156.5 C 183.833,157.167 183.833,157.167 182.5,156.5 Z"/></g>
<g><path style="opacity:0.903" fill="#0f0f0f" d="M 127.5,159.5 C 128.138,161.573 129.138,163.573 130.5,165.5C 130.137,166.183 129.804,166.85 129.5,167.5C 129.5,168.167 129.5,168.833 129.5,169.5C 129.5,169.833 129.5,170.167 129.5,170.5C 129.5,173.167 129.5,175.833 129.5,178.5C 126.881,178.768 124.381,178.435 122,177.5C 121.649,173.413 121.149,169.746 120.5,166.5C 119.808,167.025 119.308,167.692 119,168.5C 118.833,173.167 118.667,177.833 118.5,182.5C 118.356,187.671 118.856,192.671 120,197.5C 121.776,194.444 121.943,191.278 120.5,188C 121.126,187.25 121.626,186.416 122,185.5C 124.381,184.565 126.881,184.232 129.5,184.5C 129.666,189.511 129.499,194.511 129,199.5C 128.338,200.984 127.504,202.317 126.5,203.5C 125.292,204.234 123.959,204.567 122.5,204.5C 119.833,204.5 117.167,204.5 114.5,204.5C 112.479,199.634 111.479,199.634 111.5,204.5C 108.833,204.5 106.167,204.5 103.5,204.5C 103.167,202.5 102.833,200.5 102.5,198.5C 103.833,194.167 103.833,189.833 102.5,185.5C 102.255,180.946 102.588,176.446 103.5,172C 102.922,170.189 102.422,168.355 102,166.5C 101.692,167.308 101.192,167.975 100.5,168.5C 99.5023,176.472 99.169,184.472 99.5,192.5C 99.5,194.167 99.5,195.833 99.5,197.5C 100.082,199.998 100.082,202.331 99.5,204.5C 97.1667,204.5 94.8333,204.5 92.5,204.5C 92.1667,203.167 91.8333,203.167 91.5,204.5C 85.8333,204.5 80.1667,204.5 74.5,204.5C 75.0443,200.36 74.0443,199.693 71.5,202.5C 71.6243,200.418 72.6243,198.918 74.5,198C 73.2168,194.936 72.5501,191.603 72.5,188C 72.5152,184.424 73.1818,181.258 74.5,178.5C 77.2775,176.024 80.6109,175.024 84.5,175.5C 84.8495,172.955 84.0162,170.955 82,169.5C 81.51,170.793 81.3433,172.127 81.5,173.5C 79.5328,173.261 77.6995,173.594 76,174.5C 75.2828,173.956 74.7828,173.289 74.5,172.5C 75.2829,169.491 75.9496,166.324 76.5,163C 76.4301,162.235 76.0967,161.735 75.5,161.5C 76.7035,159.366 78.5368,158.032 81,157.5C 83.2924,157.649 85.7924,158.149 88.5,159C 89.3333,159.833 90.1667,160.667 91,161.5C 91.6172,160.551 91.4506,159.718 90.5,159C 96.5,158.333 102.5,158.333 108.5,159C 109.717,160.648 110.55,162.481 111,164.5C 111.532,161.135 113.366,158.802 116.5,157.5C 117.833,158.833 119.167,158.833 120.5,157.5C 122.949,157.98 125.115,158.98 127,160.5C 127.399,160.272 127.565,159.938 127.5,159.5 Z M 81.5,166.5 C 82.4734,166.987 83.4734,167.487 84.5,168C 82.8425,168.725 81.8425,168.225 81.5,166.5 Z M 102.5,185.5 C 103.092,188.631 102.092,190.964 99.5,192.5C 99.169,184.472 99.5023,176.472 100.5,168.5C 101.192,167.975 101.692,167.308 102,166.5C 102.422,168.355 102.922,170.189 103.5,172C 102.588,176.446 102.255,180.946 102.5,185.5 Z M 81.5,182.5 C 82.5,182.5 83.5,182.5 84.5,182.5C 84.8266,187.214 84.4933,191.88 83.5,196.5C 82.914,196.709 82.414,197.043 82,197.5C 81.5007,192.511 81.3341,187.511 81.5,182.5 Z M 99.5,197.5 C 100.391,198.11 101.391,198.443 102.5,198.5C 102.833,200.5 103.167,202.5 103.5,204.5C 102.298,203.595 100.964,203.595 99.5,204.5C 100.082,202.331 100.082,199.998 99.5,197.5 Z M 114.5,204.5 C 113.5,204.5 112.5,204.5 111.5,204.5C 111.479,199.634 112.479,199.634 114.5,204.5 Z"/></g>
<g><path style="opacity:0.016" fill="#000000" d="M 51.5,159.5 C 52.8333,160.167 52.8333,160.167 51.5,159.5 Z"/></g>
<g><path style="opacity:0.95" fill="#131314" d="M 189.5,158.5 C 191.5,158.5 193.5,158.5 195.5,158.5C 196.089,160.352 196.756,162.185 197.5,164C 196.513,174.418 196.18,184.918 196.5,195.5C 194.522,184.215 193.855,172.548 194.5,160.5C 188.897,159.473 183.897,159.473 179.5,160.5C 178.501,174.15 178.167,187.817 178.5,201.5C 179.833,201.5 181.167,201.5 182.5,201.5C 182.333,190.162 182.5,178.828 183,167.5C 184.588,164.691 186.755,164.025 189.5,165.5C 189.833,171 190.167,176.5 190.5,182C 190.495,187.876 189.829,193.376 188.5,198.5C 188.5,187.833 188.5,177.167 188.5,166.5C 186.876,166.36 185.71,167.027 185,168.5C 184.5,180.495 184.333,192.495 184.5,204.5C 183.609,205.11 182.609,205.443 181.5,205.5C 178.375,204.521 175.042,204.187 171.5,204.5C 171.167,203.167 170.833,203.167 170.5,204.5C 167.5,204.5 164.5,204.5 161.5,204.5C 161.167,203.167 160.833,203.167 160.5,204.5C 158.167,204.5 155.833,204.5 153.5,204.5C 154.919,203.549 156.585,203.216 158.5,203.5C 158.5,189.167 158.5,174.833 158.5,160.5C 156.801,160.34 155.134,160.506 153.5,161C 152.748,161.671 152.414,162.504 152.5,163.5C 151.549,162.081 151.216,160.415 151.5,158.5C 164.289,158.377 176.956,158.377 189.5,158.5 Z M 168.5,170.5 C 169.301,172.042 169.634,173.708 169.5,175.5C 167.856,175.714 166.356,175.38 165,174.5C 161.588,178.164 160.421,177.997 161.5,174C 164.46,173.826 166.794,172.66 168.5,170.5 Z M 167.5,182.5 C 168.805,184.397 169.471,186.731 169.5,189.5C 169.167,191.833 168.833,194.167 168.5,196.5C 167.914,196.291 167.414,195.957 167,195.5C 166.371,191.129 166.537,186.796 167.5,182.5 Z"/></g>
<g><path style="opacity:0.993" fill="#0f0f0f" d="M 200.5,158.5 C 207.364,156.743 209.697,159.076 207.5,165.5C 207.5,168.167 207.5,170.833 207.5,173.5C 207.5,175.167 207.5,176.833 207.5,178.5C 206.964,181.698 207.631,184.365 209.5,186.5C 211.203,185.34 211.869,186.007 211.5,188.5C 210.833,188.5 210.5,188.833 210.5,189.5C 212.279,191.344 214.612,192.01 217.5,191.5C 217.833,191.5 218.167,191.5 218.5,191.5C 219.167,191.5 219.833,191.5 220.5,191.5C 221.341,193.379 221.675,195.379 221.5,197.5C 217.5,197.833 217.5,198.167 221.5,198.5C 222.363,200.895 222.363,203.229 221.5,205.5C 220.188,204.54 218.854,204.706 217.5,206C 223.679,210.279 224.013,214.779 218.5,219.5C 217.265,219.279 216.265,218.612 215.5,217.5C 214.914,217.709 214.414,218.043 214,218.5C 212.487,216.26 210.987,214.76 209.5,214C 211.395,211.614 213.062,209.114 214.5,206.5C 216.424,206.289 216.757,205.623 215.5,204.5C 214.218,190.964 213.051,190.631 212,203.5C 211.494,188.878 210.66,188.878 209.5,203.5C 208.672,199.204 208.172,194.871 208,190.5C 206.878,193.309 206.378,196.309 206.5,199.5C 206.503,202.355 206.836,205.022 207.5,207.5C 207.5,207.833 207.5,208.167 207.5,208.5C 207.5,208.833 207.5,209.167 207.5,209.5C 207.5,209.833 207.5,210.167 207.5,210.5C 207.5,210.833 207.5,211.167 207.5,211.5C 204.693,212.666 202.693,214.666 201.5,217.5C 197.833,217.5 194.167,217.5 190.5,217.5C 189.412,214.556 189.412,211.556 190.5,208.5C 193.807,208.937 196.807,208.27 199.5,206.5C 196.74,206.142 193.74,205.475 190.5,204.5C 189.833,202.5 189.167,200.5 188.5,198.5C 189.829,193.376 190.495,187.876 190.5,182C 190.167,176.5 189.833,171 189.5,165.5C 186.755,164.025 184.588,164.691 183,167.5C 182.5,178.828 182.333,190.162 182.5,201.5C 181.167,201.5 179.833,201.5 178.5,201.5C 178.167,187.817 178.501,174.15 179.5,160.5C 183.897,159.473 188.897,159.473 194.5,160.5C 193.855,172.548 194.522,184.215 196.5,195.5C 197.484,198.07 198.651,198.07 200,195.5C 200.5,183.171 200.667,170.838 200.5,158.5 Z M 211.5,206.5 C 211.783,205.711 212.283,205.044 213,204.5C 213.528,205.816 213.028,206.483 211.5,206.5 Z M 215.5,204.5 C 216.757,205.623 216.424,206.289 214.5,206.5C 214.833,205.833 215.167,205.167 215.5,204.5 Z M 207.5,208.5 C 207.5,208.167 207.5,207.833 207.5,207.5C 208.078,206.453 208.744,206.62 209.5,208C 208.906,208.464 208.239,208.631 207.5,208.5 Z"/></g>
<g><path style="opacity:0.011" fill="#fefffe" d="M 207.5,165.5 C 210.167,168.167 210.167,170.833 207.5,173.5C 207.5,170.833 207.5,168.167 207.5,165.5 Z"/></g>
<g><path style="opacity:0.01" fill="#dbdbdb" d="M 207.5,178.5 C 210.643,180.38 211.31,183.046 209.5,186.5C 207.631,184.365 206.964,181.698 207.5,178.5 Z"/></g>
<g><path style="opacity:0.012" fill="#b2b2b2" d="M 211.5,188.5 C 213.124,188.36 214.29,189.027 215,190.5C 217.235,189.02 219.068,189.353 220.5,191.5C 219.833,191.5 219.167,191.5 218.5,191.5C 218.167,190.167 217.833,190.167 217.5,191.5C 214.612,192.01 212.279,191.344 210.5,189.5C 211.167,189.5 211.5,189.167 211.5,188.5 Z"/></g>
<g><path style="opacity:0.015" fill="#f0f0f0" d="M 102.5,185.5 C 103.833,189.833 103.833,194.167 102.5,198.5C 101.391,198.443 100.391,198.11 99.5,197.5C 99.5,195.833 99.5,194.167 99.5,192.5C 102.092,190.964 103.092,188.631 102.5,185.5 Z"/></g>
<g><path style="opacity:0.667" fill="#464646" d="M 215.5,204.5 C 215.167,205.167 214.833,205.833 214.5,206.5C 213.062,209.114 211.395,211.614 209.5,214C 210.987,214.76 212.487,216.26 214,218.5C 214.414,218.043 214.914,217.709 215.5,217.5C 216.265,218.612 217.265,219.279 218.5,219.5C 215.26,220.742 211.926,220.576 208.5,219C 209.535,217.493 209.368,215.993 208,214.5C 207.333,215.833 206.667,215.833 206,214.5C 205.536,215.094 205.369,215.761 205.5,216.5C 204.167,216.833 202.833,217.167 201.5,217.5C 202.693,214.666 204.693,212.666 207.5,211.5C 207.5,211.167 207.5,210.833 207.5,210.5C 208.833,210.167 208.833,209.833 207.5,209.5C 207.5,209.167 207.5,208.833 207.5,208.5C 208.239,208.631 208.906,208.464 209.5,208C 208.744,206.62 208.078,206.453 207.5,207.5C 206.836,205.022 206.503,202.355 206.5,199.5C 206.378,196.309 206.878,193.309 208,190.5C 208.172,194.871 208.672,199.204 209.5,203.5C 210.66,188.878 211.494,188.878 212,203.5C 213.051,190.631 214.218,190.964 215.5,204.5 Z M 211.5,206.5 C 213.028,206.483 213.528,205.816 213,204.5C 212.283,205.044 211.783,205.711 211.5,206.5 Z"/></g>
<g><path style="opacity:1" fill="#534cd5" d="M 170.5,209.5 C 171.833,209.5 173.167,209.5 174.5,209.5C 178.042,209.187 181.375,209.521 184.5,210.5C 182.821,210.285 181.821,210.952 181.5,212.5C 180.833,212.5 180.5,212.167 180.5,211.5C 179.791,210.596 178.791,210.263 177.5,210.5C 176.964,213.698 177.631,216.365 179.5,218.5C 176.167,219.833 172.833,219.833 169.5,218.5C 170.239,218.631 170.906,218.464 171.5,218C 169.771,216.211 169.104,214.044 169.5,211.5C 170.5,211.5 171.5,211.5 172.5,211.5C 172.5,213.833 172.5,216.167 172.5,218.5C 173.833,218.5 175.167,218.5 176.5,218.5C 176.664,215.813 176.497,213.146 176,210.5C 174.845,219.811 174.012,219.811 173.5,210.5C 172.209,210.737 171.209,210.404 170.5,209.5 Z"/></g>
<g><path style="opacity:1" fill="#a1a3e5" d="M 184.5,210.5 C 186.582,211.585 186.916,213.085 185.5,215C 186.167,216.333 187.167,217.333 188.5,218C 186.19,218.497 183.857,218.663 181.5,218.5C 181.5,216.5 181.5,214.5 181.5,212.5C 181.821,210.952 182.821,210.285 184.5,210.5 Z"/></g>
<g><path style="opacity:0.902" fill="#5046e1" d="M 55.5,201.5 C 56.5,201.833 57.1667,202.5 57.5,203.5C 58.1667,203.5 58.5,203.833 58.5,204.5C 62.5,204.5 66.5,204.5 70.5,204.5C 71.8333,204.5 73.1667,204.5 74.5,204.5C 80.1667,204.5 85.8333,204.5 91.5,204.5C 91.8333,204.5 92.1667,204.5 92.5,204.5C 94.8333,204.5 97.1667,204.5 99.5,204.5C 100.964,203.595 102.298,203.595 103.5,204.5C 106.167,204.5 108.833,204.5 111.5,204.5C 112.5,204.5 113.5,204.5 114.5,204.5C 117.167,204.5 119.833,204.5 122.5,204.5C 116.69,205.49 110.69,205.823 104.5,205.5C 102.865,209.573 101.865,213.906 101.5,218.5C 101.817,214.298 101.483,210.298 100.5,206.5C 94.3424,205.834 88.009,205.5 81.5,205.5C 74.7963,205.504 68.463,206.17 62.5,207.5C 61.0568,208.335 60.0568,209.668 59.5,211.5C 58.8333,210.167 58.1667,208.833 57.5,207.5C 56.1667,211.167 56.1667,214.833 57.5,218.5C 59.0929,211.951 60.0929,211.951 60.5,218.5C 59.2921,219.234 57.9587,219.567 56.5,219.5C 56.5,220.5 56.5,221.5 56.5,222.5C 54.7483,222.582 53.7483,221.749 53.5,220C 54.2267,215.434 54.2267,210.434 53.5,205C 54.9733,204.29 55.6399,203.124 55.5,201.5 Z"/></g>
<g><path style="opacity:1" fill="#d7dcf1" d="M 71.5,210.5 C 73.1667,210.5 74.8333,210.5 76.5,210.5C 77.6885,215.431 76.0218,218.764 71.5,220.5C 71.5,217.167 71.5,213.833 71.5,210.5 Z"/></g>
<g><path style="opacity:1" fill="#c4cbf1" d="M 180.5,211.5 C 179.532,213.607 179.198,215.941 179.5,218.5C 177.631,216.365 176.964,213.698 177.5,210.5C 178.791,210.263 179.791,210.596 180.5,211.5 Z"/></g>
<g><path style="opacity:1" fill="#4d39e7" d="M 72.5,211.5 C 73.6935,211.97 74.3601,212.97 74.5,214.5C 74.1667,215.5 73.8333,216.5 73.5,217.5C 72.5344,215.604 72.2011,213.604 72.5,211.5 Z"/></g>
<g><path style="opacity:1" fill="#bfbfeb" d="M 170.5,209.5 C 171.209,210.404 172.209,210.737 173.5,210.5C 174.012,219.811 174.845,219.811 176,210.5C 176.497,213.146 176.664,215.813 176.5,218.5C 175.167,218.5 173.833,218.5 172.5,218.5C 172.5,216.167 172.5,213.833 172.5,211.5C 171.5,211.5 170.5,211.5 169.5,211.5C 169.104,214.044 169.771,216.211 171.5,218C 170.906,218.464 170.239,218.631 169.5,218.5C 168.5,217.167 167.5,217.167 166.5,218.5C 165.167,218.5 163.833,218.5 162.5,218.5C 162.797,208.791 163.63,208.458 165,217.5C 165.182,214.774 165.682,212.107 166.5,209.5C 167.995,208.295 169.328,208.295 170.5,209.5 Z"/></g>
<g><path style="opacity:0.006" fill="#fefffe" d="M 205.5,216.5 C 207.793,217.301 207.46,217.968 204.5,218.5C 204.833,217.833 205.167,217.167 205.5,216.5 Z"/></g>
<g><path style="opacity:1" fill="#9f9dd9" d="M 71.5,210.5 C 71.5,213.833 71.5,217.167 71.5,220.5C 70.5255,219.365 69.3588,218.365 68,217.5C 65.6194,218.435 63.1194,218.768 60.5,218.5C 60.0929,211.951 59.0929,211.951 57.5,218.5C 56.1667,214.833 56.1667,211.167 57.5,207.5C 58.1667,208.833 58.8333,210.167 59.5,211.5C 60.0568,209.668 61.0568,208.335 62.5,207.5C 62.3433,208.873 62.51,210.207 63,211.5C 64.6995,210.594 66.5328,210.261 68.5,210.5C 68.238,209.022 68.5713,207.689 69.5,206.5C 70.1719,207.949 70.8386,209.282 71.5,210.5 Z"/></g>
<g><path style="opacity:0.004" fill="#fefffe" d="M 192.5,218.5 C 193.833,219.167 193.833,219.167 192.5,218.5 Z"/></g>
<g><path style="opacity:0.004" fill="#e1e1e1" d="M 204.5,218.5 C 204.103,219.525 203.437,219.692 202.5,219C 203.094,218.536 203.761,218.369 204.5,218.5 Z"/></g>
<g><path style="opacity:1" fill="#0f0bf0" d="M 100.5,206.5 C 99.8745,208.626 98.5411,210.293 96.5,211.5C 94.9291,210.691 93.2624,210.357 91.5,210.5C 91.1667,210.5 90.8333,210.5 90.5,210.5C 89.2086,209.527 89.2086,208.527 90.5,207.5C 89.675,206.614 88.675,206.281 87.5,206.5C 86.2502,206.577 85.4169,207.244 85,208.5C 83.5557,206.845 81.7224,206.178 79.5,206.5C 79.1832,210.702 79.5166,214.702 80.5,218.5C 87.5,219.833 94.5,219.833 101.5,218.5C 101.865,213.906 102.865,209.573 104.5,205.5C 104.183,209.702 104.517,213.702 105.5,217.5C 105.5,218.167 105.833,218.5 106.5,218.5C 111.233,219.19 116.066,219.856 121,220.5C 122.302,219.915 123.469,219.249 124.5,218.5C 123.998,215.581 123.998,212.914 124.5,210.5C 123.081,209.549 121.415,209.216 119.5,209.5C 119.5,208.5 119.5,207.5 119.5,206.5C 131.836,205.192 144.17,205.192 156.5,206.5C 156.666,210.846 156.499,215.179 156,219.5C 155.502,216.183 155.335,212.85 155.5,209.5C 153.585,209.216 151.919,209.549 150.5,210.5C 149.527,212.948 149.194,215.615 149.5,218.5C 149.189,219.478 148.522,220.145 147.5,220.5C 146.511,216.893 146.177,213.226 146.5,209.5C 144.901,209.232 143.568,209.566 142.5,210.5C 142.167,210.5 141.833,210.5 141.5,210.5C 140.833,210.5 140.167,210.5 139.5,210.5C 139.167,210.5 138.833,210.5 138.5,210.5C 137.074,209.659 135.74,208.659 134.5,207.5C 132.414,205.977 130.748,206.31 129.5,208.5C 129.133,211.11 128.8,213.777 128.5,216.5C 128.577,218.299 129.077,219.966 130,221.5C 133.8,220.801 137.633,220.135 141.5,219.5C 143.519,220.133 143.853,221.133 142.5,222.5C 113.833,222.5 85.1667,222.5 56.5,222.5C 56.5,221.5 56.5,220.5 56.5,219.5C 57.9587,219.567 59.2921,219.234 60.5,218.5C 63.1194,218.768 65.6194,218.435 68,217.5C 69.3588,218.365 70.5255,219.365 71.5,220.5C 76.0218,218.764 77.6885,215.431 76.5,210.5C 74.8333,210.5 73.1667,210.5 71.5,210.5C 70.8386,209.282 70.1719,207.949 69.5,206.5C 68.5713,207.689 68.238,209.022 68.5,210.5C 66.5328,210.261 64.6995,210.594 63,211.5C 62.51,210.207 62.3433,208.873 62.5,207.5C 68.463,206.17 74.7963,205.504 81.5,205.5C 88.009,205.5 94.3424,205.834 100.5,206.5 Z"/></g>
<g><path style="opacity:1" fill="#4f49d7" d="M 87.5,206.5 C 88.675,206.281 89.675,206.614 90.5,207.5C 89.2086,208.527 89.2086,209.527 90.5,210.5C 90.8333,210.5 91.1667,210.5 91.5,210.5C 91.3359,213.187 91.5026,215.854 92,218.5C 93.1551,209.189 93.9884,209.189 94.5,218.5C 96.8333,218.5 99.1667,218.5 101.5,218.5C 94.5,219.833 87.5,219.833 80.5,218.5C 82.8333,218.5 85.1667,218.5 87.5,218.5C 87.5,214.5 87.5,210.5 87.5,206.5 Z"/></g>
<g><path style="opacity:1" fill="#a9a9dc" d="M 119.5,209.5 C 119.611,210.117 119.944,210.617 120.5,211C 117.833,213.333 117.833,215.667 120.5,218C 117.672,217.905 114.672,218.072 111.5,218.5C 111.022,215.722 112.022,213.722 114.5,212.5C 113.757,211.818 113.091,211.151 112.5,210.5C 114.492,210.672 116.158,210.005 117.5,208.5C 118.183,208.863 118.85,209.196 119.5,209.5 Z"/></g>
<g><path style="opacity:1" fill="#a4a4dc" d="M 87.5,206.5 C 87.5,210.5 87.5,214.5 87.5,218.5C 85.1667,218.5 82.8333,218.5 80.5,218.5C 79.5166,214.702 79.1832,210.702 79.5,206.5C 81.7224,206.178 83.5557,206.845 85,208.5C 85.4169,207.244 86.2502,206.577 87.5,206.5 Z"/></g>
<g><path style="opacity:1" fill="#4b41cf" d="M 110.5,208.5 C 111.167,209.167 111.833,209.833 112.5,210.5C 113.091,211.151 113.757,211.818 114.5,212.5C 112.022,213.722 111.022,215.722 111.5,218.5C 114.672,218.072 117.672,217.905 120.5,218C 117.833,215.667 117.833,213.333 120.5,211C 119.944,210.617 119.611,210.117 119.5,209.5C 121.415,209.216 123.081,209.549 124.5,210.5C 123.5,210.5 122.5,210.5 121.5,210.5C 121.178,212.722 121.845,214.556 123.5,216C 120.949,217.516 121.282,218.349 124.5,218.5C 123.469,219.249 122.302,219.915 121,220.5C 116.066,219.856 111.233,219.19 106.5,218.5C 107.833,218.5 109.167,218.5 110.5,218.5C 110.653,212.676 109.987,212.343 108.5,217.5C 107.345,214.554 107.179,211.554 108,208.5C 109.114,212.456 109.947,212.456 110.5,208.5 Z"/></g>
<g><path style="opacity:1" fill="#c0c1e0" d="M 90.5,210.5 C 90.8134,213.247 90.48,215.914 89.5,218.5C 89.1667,217.167 88.8333,215.833 88.5,214.5C 88.5854,212.667 89.2521,211.334 90.5,210.5 Z"/></g>
<g><path style="opacity:1" fill="#b0b8e0" d="M 124.5,210.5 C 123.998,212.914 123.998,215.581 124.5,218.5C 121.282,218.349 120.949,217.516 123.5,216C 121.845,214.556 121.178,212.722 121.5,210.5C 122.5,210.5 123.5,210.5 124.5,210.5 Z"/></g>
<g><path style="opacity:1" fill="#c1c8f2" d="M 110.5,208.5 C 109.947,212.456 109.114,212.456 108,208.5C 107.179,211.554 107.345,214.554 108.5,217.5C 109.987,212.343 110.653,212.676 110.5,218.5C 109.167,218.5 107.833,218.5 106.5,218.5C 105.833,218.5 105.5,218.167 105.5,217.5C 105.335,214.15 105.502,210.817 106,207.5C 107.915,206.084 109.415,206.418 110.5,208.5 Z"/></g>
<g><path style="opacity:1" fill="#aeafe0" d="M 100.5,206.5 C 101.483,210.298 101.817,214.298 101.5,218.5C 99.1667,218.5 96.8333,218.5 94.5,218.5C 93.9884,209.189 93.1551,209.189 92,218.5C 91.5026,215.854 91.3359,213.187 91.5,210.5C 93.2624,210.357 94.9291,210.691 96.5,211.5C 98.5411,210.293 99.8745,208.626 100.5,206.5 Z"/></g>
<g><path style="opacity:1" fill="#3229e6" d="M 126.5,203.5 C 128.948,204.473 131.615,204.806 134.5,204.5C 140.833,204.5 147.167,204.5 153.5,204.5C 155.833,204.5 158.167,204.5 160.5,204.5C 160.833,204.5 161.167,204.5 161.5,204.5C 164.5,204.5 167.5,204.5 170.5,204.5C 170.833,204.5 171.167,204.5 171.5,204.5C 175.042,204.187 178.375,204.521 181.5,205.5C 177.685,204.918 174.351,205.752 171.5,208C 172.737,208.232 173.737,208.732 174.5,209.5C 173.167,209.5 171.833,209.5 170.5,209.5C 169.328,208.295 167.995,208.295 166.5,209.5C 165.682,212.107 165.182,214.774 165,217.5C 163.63,208.458 162.797,208.791 162.5,218.5C 163.833,218.5 165.167,218.5 166.5,218.5C 161.081,220.044 155.414,220.877 149.5,221C 148.944,221.383 148.611,221.883 148.5,222.5C 146.5,222.5 144.5,222.5 142.5,222.5C 143.853,221.133 143.519,220.133 141.5,219.5C 137.633,220.135 133.8,220.801 130,221.5C 129.077,219.966 128.577,218.299 128.5,216.5C 128.8,213.777 129.133,211.11 129.5,208.5C 130.023,211.028 131.023,213.361 132.5,215.5C 132.333,216.167 132.167,216.833 132,217.5C 131.751,216.376 131.251,215.376 130.5,214.5C 128.766,218.596 129.933,219.929 134,218.5C 134.167,217.667 134.333,216.833 134.5,216C 133.953,213.783 132.953,211.783 131.5,210C 131.667,209.5 131.833,209 132,208.5C 133.516,211.051 134.349,210.718 134.5,207.5C 135.74,208.659 137.074,209.659 138.5,210.5C 137.5,210.5 136.5,210.5 135.5,210.5C 135.5,213.167 135.5,215.833 135.5,218.5C 136.873,218.657 138.207,218.49 139.5,218C 138.027,217.29 137.36,216.124 137.5,214.5C 138.5,214.5 139.5,214.5 140.5,214.5C 140.567,213.041 140.234,211.708 139.5,210.5C 140.167,210.5 140.833,210.5 141.5,210.5C 141.5,213.167 141.5,215.833 141.5,218.5C 142.978,218.762 144.311,218.429 145.5,217.5C 144.603,217.331 143.603,216.998 142.5,216.5C 144.559,215.049 145.559,213.049 145.5,210.5C 144.5,210.5 143.5,210.5 142.5,210.5C 143.568,209.566 144.901,209.232 146.5,209.5C 146.177,213.226 146.511,216.893 147.5,220.5C 148.522,220.145 149.189,219.478 149.5,218.5C 151.167,218.5 152.833,218.5 154.5,218.5C 154.5,215.833 154.5,213.167 154.5,210.5C 153.167,210.5 151.833,210.5 150.5,210.5C 151.919,209.549 153.585,209.216 155.5,209.5C 155.335,212.85 155.502,216.183 156,219.5C 156.499,215.179 156.666,210.846 156.5,206.5C 144.17,205.192 131.836,205.192 119.5,206.5C 119.5,207.5 119.5,208.5 119.5,209.5C 118.85,209.196 118.183,208.863 117.5,208.5C 116.158,210.005 114.492,210.672 112.5,210.5C 111.833,209.833 111.167,209.167 110.5,208.5C 109.415,206.418 107.915,206.084 106,207.5C 105.502,210.817 105.335,214.15 105.5,217.5C 104.517,213.702 104.183,209.702 104.5,205.5C 110.69,205.823 116.69,205.49 122.5,204.5C 123.959,204.567 125.292,204.234 126.5,203.5 Z"/></g>
<g><path style="opacity:1" fill="#b6baf1" d="M 134.5,207.5 C 134.349,210.718 133.516,211.051 132,208.5C 131.833,209 131.667,209.5 131.5,210C 132.953,211.783 133.953,213.783 134.5,216C 134.333,216.833 134.167,217.667 134,218.5C 129.933,219.929 128.766,218.596 130.5,214.5C 131.251,215.376 131.751,216.376 132,217.5C 132.167,216.833 132.333,216.167 132.5,215.5C 131.023,213.361 130.023,211.028 129.5,208.5C 130.748,206.31 132.414,205.977 134.5,207.5 Z"/></g>
<g><path style="opacity:1" fill="#c5c5f3" d="M 157.5,207.5 C 158.873,207.343 160.207,207.51 161.5,208C 158.997,209.549 158.997,211.216 161.5,213C 160.134,214.6 159.134,216.433 158.5,218.5C 157.511,214.893 157.177,211.226 157.5,207.5 Z"/></g>
<g><path style="opacity:1" fill="#aca9e7" d="M 150.5,210.5 C 151.833,210.5 153.167,210.5 154.5,210.5C 154.5,213.167 154.5,215.833 154.5,218.5C 152.833,218.5 151.167,218.5 149.5,218.5C 149.194,215.615 149.527,212.948 150.5,210.5 Z"/></g>
<g><path style="opacity:1" fill="#bfc4e9" d="M 138.5,210.5 C 138.833,210.5 139.167,210.5 139.5,210.5C 140.234,211.708 140.567,213.041 140.5,214.5C 139.5,214.5 138.5,214.5 137.5,214.5C 137.36,216.124 138.027,217.29 139.5,218C 138.207,218.49 136.873,218.657 135.5,218.5C 135.5,215.833 135.5,213.167 135.5,210.5C 136.5,210.5 137.5,210.5 138.5,210.5 Z"/></g>
<g><path style="opacity:1" fill="#c3c3e5" d="M 141.5,210.5 C 141.833,210.5 142.167,210.5 142.5,210.5C 143.5,210.5 144.5,210.5 145.5,210.5C 145.559,213.049 144.559,215.049 142.5,216.5C 143.603,216.998 144.603,217.331 145.5,217.5C 144.311,218.429 142.978,218.762 141.5,218.5C 141.5,215.833 141.5,213.167 141.5,210.5 Z"/></g>
<g><path style="opacity:1" fill="#1b15ef" d="M 184.5,204.5 C 186.5,204.5 188.5,204.5 190.5,204.5C 190.5,205.833 190.5,207.167 190.5,208.5C 189.412,211.556 189.412,214.556 190.5,217.5C 190.5,219.167 190.5,220.833 190.5,222.5C 176.5,222.5 162.5,222.5 148.5,222.5C 148.611,221.883 148.944,221.383 149.5,221C 155.414,220.877 161.081,220.044 166.5,218.5C 167.5,217.167 168.5,217.167 169.5,218.5C 172.833,219.833 176.167,219.833 179.5,218.5C 179.198,215.941 179.532,213.607 180.5,211.5C 180.5,212.167 180.833,212.5 181.5,212.5C 181.5,214.5 181.5,216.5 181.5,218.5C 183.857,218.663 186.19,218.497 188.5,218C 187.167,217.333 186.167,216.333 185.5,215C 186.916,213.085 186.582,211.585 184.5,210.5C 181.375,209.521 178.042,209.187 174.5,209.5C 173.737,208.732 172.737,208.232 171.5,208C 174.351,205.752 177.685,204.918 181.5,205.5C 182.609,205.443 183.609,205.11 184.5,204.5 Z"/></g>
</svg>
